HIERARCHY
ROOT Hips
{
	OFFSET	0.00	0.00	0.00
	CHANNELS 6 Xposition Yposition Zposition Zrotation Xrotation Yrotation
	JOINT LeftUpLeg
	{
		OFFSET	 0.126116	-0.014019	-0.065224
		CHANNELS 3 Zrotation Xrotation Yrotation
		JOINT LeftLeg
		{
			OFFSET	 0.000000	 0.000000	 0.569914
			CHANNELS 3 Zrotation Xrotation Yrotation
			JOINT LeftFoot
			{
				OFFSET	 0.000000	 0.000000	 0.544423
				CHANNELS 3 Zrotation Xrotation Yrotation
				JOINT LeftToeBase
				{
					OFFSET	 0.000000	 0.000000	 0.207117
					CHANNELS 3 Zrotation Xrotation Yrotation
					End Site
					{
						OFFSET	 0.000000	 0.000000	 0.207117
					}
				}
			}
		}
	}
	JOINT RightUpLeg
	{
		OFFSET	-0.124023	-0.008373	-0.065224
		CHANNELS 3 Zrotation Xrotation Yrotation
		JOINT RightLeg
		{
			OFFSET	 0.000000	 0.000000	 0.570047
			CHANNELS 3 Zrotation Xrotation Yrotation
			JOINT RightFoot
			{
				OFFSET	 0.000000	 0.000000	 0.544354
				CHANNELS 3 Zrotation Xrotation Yrotation
				JOINT RightToeBase
				{
					OFFSET	 0.000000	 0.000000	 0.207540
					CHANNELS 3 Zrotation Xrotation Yrotation
					End Site
					{
						OFFSET	 0.000000	 0.000000	 0.207540
					}
				}
			}
		}
	}
	JOINT Spine
	{
		OFFSET	 0.000184	-0.007763	 0.117403
		CHANNELS 3 Zrotation Xrotation Yrotation
		JOINT Spine1
		{
			OFFSET	 0.000000	 0.000000	 0.137269
			CHANNELS 3 Zrotation Xrotation Yrotation
			JOINT Spine2
			{
				OFFSET	 0.000000	 0.000000	 0.156879
				CHANNELS 3 Zrotation Xrotation Yrotation
				JOINT LeftShoulder
				{
					OFFSET	 0.080501	-0.002496	 0.160144
					CHANNELS 3 Zrotation Xrotation Yrotation
					JOINT LeftArm
					{
						OFFSET	 0.000000	 0.000000	 0.164363
						CHANNELS 3 Zrotation Xrotation Yrotation
						JOINT LeftForeArm
						{
							OFFSET	 0.000000	 0.000000	 0.364576
							CHANNELS 3 Zrotation Xrotation Yrotation
							JOINT LeftHand
							{
								OFFSET	 0.000000	 0.000000	 0.360812
								CHANNELS 3 Zrotation Xrotation Yrotation
								JOINT LeftHandIndex1
								{
									OFFSET	 0.000000	 0.000000	 0.086006
									CHANNELS 3 Zrotation Xrotation Yrotation
									JOINT LeftHandIndex2
									{
										OFFSET	 0.000000	 0.000000	 0.047237
										CHANNELS 3 Zrotation Xrotation Yrotation
										JOINT LeftHandIndex3
										{
											OFFSET	-0.004284	-0.000551	 0.038165
											CHANNELS 3 Zrotation Xrotation Yrotation
											End Site
											{
												OFFSET	-0.004284	-0.000551	 0.038165
											}
										}
									}
								}
							}
						}
					}
				}
				JOINT Neck
				{
					OFFSET	 0.000000	 0.000000	 0.176489
					CHANNELS 3 Zrotation Xrotation Yrotation
					JOINT Head
					{
						OFFSET	 0.000000	-0.001747	 0.077940
						CHANNELS 3 Zrotation Xrotation Yrotation
						End Site
						{
							OFFSET	 0.000000	-0.001747	 0.077940
						}
					}
				}
				JOINT RightShoulder
				{
					OFFSET	-0.080363	 0.000306	 0.159706
					CHANNELS 3 Zrotation Xrotation Yrotation
					JOINT RightArm
					{
						OFFSET	 0.000000	 0.000000	 0.164196
						CHANNELS 3 Zrotation Xrotation Yrotation
						JOINT RightForeArm
						{
							OFFSET	 0.000000	 0.000000	 0.365611
							CHANNELS 3 Zrotation Xrotation Yrotation
							JOINT RightHand
							{
								OFFSET	 0.000000	 0.000000	 0.360648
								CHANNELS 3 Zrotation Xrotation Yrotation
								JOINT RightHandIndex1
								{
									OFFSET	 0.000000	 0.000000	 0.069977
									CHANNELS 3 Zrotation Xrotation Yrotation
									JOINT RightHandIndex2
									{
										OFFSET	 0.000000	 0.000000	 0.052305
										CHANNELS 3 Zrotation Xrotation Yrotation
										JOINT RightHandIndex3
										{
											OFFSET	 0.009002	-0.000782	 0.042196
											CHANNELS 3 Zrotation Xrotation Yrotation
											End Site
											{
												OFFSET	 0.009002	-0.000782	 0.042196
											}
										}
									}
								}
							}
						}
					}
				}
			}
		}
	}
}
MOTION
Frames:    12
Frame Time: 0.03333334
-0.721799	-0.006100	 1.272120	-179.960200	 0.275428	 0.114564	-0.029223	-1.791589	 177.834100	 9.214853	-11.206490	 1.515328	-38.808200	 69.546800	 18.256800	-2.385833	 28.452760	 0.000004	-5.023630	-2.966036	-178.134600	-9.267077	-12.722160	-2.008182	 33.103890	 70.656440	-17.748160	 2.384659	 28.388700	-0.000001	 2.475381	 4.095484	-0.839160	 0.930265	-2.954452	 3.277772	-3.167878	 4.729993	-3.391351	-91.776190	 78.527400	-180.000000	-8.051513	-10.012570	-9.836785	-7.627883	-0.090908	-0.478223	 10.897890	-0.477849	-5.901129	-4.130354	 21.526190	 0.991307	-5.167926	 0.731697	 3.519349	-1.378229	 35.397820	-2.634230	-0.000002	-3.783157	-0.089647	-1.772562	-4.304560	-0.066623	 89.782090	 78.203830	-180.000000	 6.334400	-12.605570	 9.802999	 5.234134	-0.056266	 0.481370	-7.512054	-1.195614	 8.421006	 5.716295	 19.173350	-3.684826	 5.027458	 0.246833	-9.377971	-2.350882	 35.473990	 5.254307
-0.718181	-0.006085	 1.272675	-176.954700	-5.639374	 0.060877	 16.675030	 4.447284	 174.749000	-4.352160	-8.406054	-0.853063	-12.933440	 69.126260	 4.931767	-2.385833	 28.452760	 0.000004	-15.621060	 3.421382	-175.944800	 2.220162	-12.483280	 0.527854	 12.889770	 71.726070	-7.458143	 2.384659	 28.388700	-0.000001	 2.776350	 5.959909	-2.424676	 2.660292	 12.688500	 7.770707	-10.614270	-9.796619	-10.335150	-91.776120	 78.527420	 180.000000	-1.247808	-6.587038	-8.477681	-13.598470	-0.041815	-0.499245	 0.129008	-9.337468	-2.253751	-4.130354	 21.526190	 0.991307	-5.167926	 0.731697	 3.519349	-1.378229	 35.397820	-2.634230	-8.189051	 1.021571	 3.558327	-6.640618	-16.786090	-5.088836	 89.782100	 78.203890	 180.000000	 28.662760	-7.691117	 15.283630	 7.143693	-0.040851	 0.491181	 18.026930	 52.894130	 15.938500	 5.716295	 19.173350	-3.684826	 5.027458	 0.246833	-9.377971	-2.350882	 35.473990	 5.254307
-0.718031	-0.006097	 1.272628	-176.818100	-5.874860	 0.059597	 17.453140	 4.498012	 174.519900	-4.862187	-8.643338	-0.954450	-11.660350	 68.692410	 4.169572	-2.385833	 28.452760	 0.000004	-16.027800	 3.678741	-175.798800	 2.593960	-12.525540	 0.610836	 12.261160	 71.104330	-7.206242	 2.384659	 28.388700	-0.000001	 2.710685	 6.130234	-2.496193	 2.678216	 13.021010	 7.963297	-10.929780	-10.129880	-10.653800	-91.776150	 78.527400	 180.000000	-0.949677	-6.069853	-8.491061	-13.844210	-0.039998	-0.503173	-0.408979	-9.833825	-2.251099	-4.130354	 21.526190	 0.991307	-5.167926	 0.731697	 3.519349	-1.378229	 35.397820	-2.634230	-8.493211	 1.163644	 3.794740	-6.899437	-17.114800	-5.436714	 89.782100	 78.203870	 180.000000	 29.848480	-7.013741	 15.593430	 7.465328	-0.038461	 0.495934	 20.194310	 54.729500	 14.836140	 5.716295	 19.173350	-3.684826	 5.027458	 0.246833	-9.377971	-2.350882	 35.473990	 5.254307
-0.717881	-0.006112	 1.272566	-176.678000	-6.118686	 0.056084	 18.245290	 4.530776	 174.277000	-5.384635	-8.929369	-1.067940	-10.391330	 68.276220	 3.419701	-2.385833	 28.452760	 0.000004	-16.442330	 3.904290	-175.639400	 2.977185	-12.663220	 0.701676	 11.670390	 70.522430	-7.002416	 2.384659	 28.388700	-0.000001	 2.634375	 6.314065	-2.562411	 2.688392	 13.338700	 8.152191	-11.252680	-10.459870	-10.976530	-91.776110	 78.527430	 180.000000	-0.607052	-5.474967	-8.517768	-14.095160	-0.038131	-0.507918	-0.955087	-10.350510	-2.254474	-4.130354	 21.526190	 0.991307	-5.167926	 0.731697	 3.519349	-1.378229	 35.397820	-2.634230	-8.805435	 1.306747	 4.038606	-7.167130	-17.448180	-5.798740	 89.782100	 78.203870	-180.000000	 31.120760	-6.224005	 15.906740	 7.793748	-0.035745	 0.498381	 22.709380	 56.489360	 13.374100	 5.716295	 19.173350	-3.684826	 5.027458	 0.246833	-9.377971	-2.350882	 35.473990	 5.254307
-0.717620	-0.006149	 1.272423	-176.430300	-6.562706	 0.044122	 19.645370	 4.548416	 173.820500	-6.317714	-9.537540	-1.297084	-8.205362	 67.601350	 2.147104	-2.385833	 28.452760	 0.000004	-17.182950	 4.306952	-175.328500	 3.660400	-12.953140	 0.871171	 10.660650	 69.528300	-6.684098	 2.384659	 28.388700	-0.000001	 2.475088	 6.668381	-2.663487	 2.685138	 13.848340	 8.470518	-11.827520	-11.020880	-11.543930	-91.776160	 78.527400	 180.000000	 0.288074	-2.058451	-2.038892	-14.662350	-0.957327	-14.378840	-1.916461	-11.292040	-2.276663	-4.130354	 21.526190	 0.991307	-5.167926	 0.731697	 3.519349	-1.378229	 35.397820	-2.634230	-9.363918	 1.555714	 4.477861	-7.651101	-18.034160	-6.458778	 89.782030	 78.203850	-179.999900	 33.481490	-4.566221	 16.420550	 8.377304	-0.031203	 0.506940	 28.018480	 59.257680	 9.897707	 5.716295	 19.173350	-3.684826	 5.027458	 0.246833	-9.377971	-2.350882	 35.473990	 5.254307
-0.717647	-0.006233	 1.272009	-176.300400	-6.692214	 0.074246	 19.598240	 3.957462	 173.598500	-6.389421	-11.196800	-1.534162	-9.193934	 68.416730	 3.252259	-2.385833	 28.452760	 0.000004	-17.122350	 4.384131	-175.239700	 3.677099	-13.619420	 0.919096	 11.686310	 69.967690	-7.812928	 2.384659	 28.388700	-0.000001	 2.077745	 6.810236	-2.823674	 2.364209	 13.421820	 8.718064	-11.767630	-10.646440	-11.607200	-91.776200	 78.527430	-180.000000	-0.106188	 3.104780	 6.147179	-14.875320	-2.252472	-32.606900	-1.982352	-11.309040	-2.321505	-4.130354	 21.526190	 0.991307	-5.167926	 0.731697	 3.519349	-1.378229	 35.397820	-2.634230	-9.399141	 1.542038	 4.688573	-7.662362	-17.862690	-6.837146	 89.782140	 78.203870	 180.000000	 31.649540	-0.431315	 5.067115	 8.774551	-1.410967	 24.293670	 41.331180	 51.937220	-3.478598	 5.716295	 19.173350	-3.684826	 5.027458	 0.246833	-9.377971	-2.350882	 35.473990	 5.254307
-0.717770	-0.006401	 1.271252	-176.167000	-6.809876	 0.103222	 19.193610	 3.088724	 173.312400	-6.302409	-13.692060	-1.848942	-11.702720	 69.888730	 5.758638	-2.385833	 28.452760	 0.000004	-16.846910	 4.443241	-175.119600	 3.553326	-14.745480	 0.961820	 13.789100	 71.031100	-9.927099	 2.384659	 28.388700	-0.000001	 1.399850	 6.982407	-3.013862	 1.767100	 12.478510	 8.978638	-11.517900	-9.865597	-11.530970	-91.776190	 78.527400	-180.000000	-1.370344	 10.409420	 13.684660	-15.343930	-3.666716	-50.226180	-1.878877	-11.102350	-2.373395	-4.130354	 21.526190	 0.991307	-5.167926	 0.731697	 3.519349	-1.378229	 35.397820	-2.634230	-9.317859	 1.460827	 4.885346	-7.562057	-17.473590	-7.222660	 89.782110	 78.203890	 180.000000	 28.199430	 4.954309	-4.650091	 9.493648	-2.446147	 45.479550	 45.484440	 42.835280	-6.629543	 5.716295	 19.173350	-3.684826	 5.027458	 0.246833	-9.377971	-2.350882	 35.473990	 5.254307
-0.717929	-0.006548	 1.270559	-176.088700	-6.923055	-0.011622	 19.137110	 2.593927	 173.141900	-6.397595	-15.398870	-2.099705	-13.738460	 70.932840	 7.945899	-2.385833	 28.452760	 0.000004	-16.735770	 4.450466	-174.842900	 3.590339	-15.740960	 1.035237	 14.694930	 71.840590	-10.906950	 2.384659	 28.388700	-0.000001	 0.853703	 7.159946	-2.910434	 1.285175	 11.689460	 8.954319	-11.358440	-9.340345	-11.359800	-91.776220	 78.527380	-180.000000	-2.430717	 16.490640	 18.019920	-15.918360	-4.422496	-60.749410	-1.924743	-11.089280	-2.394291	-4.130354	 21.526190	 0.991307	-5.167926	 0.731697	 3.519349	-1.378229	 35.397820	-2.634230	-9.267517	 1.385999	 4.871059	-7.517941	-17.286580	-7.222607	 89.782160	 78.203870	 179.999900	 25.553330	 9.518726	-9.774333	 10.042450	-2.914650	 57.510650	 46.117240	 37.575040	-5.852753	 5.716295	 19.173350	-3.684826	 5.027458	 0.246833	-9.377971	-2.350882	 35.473990	 5.254307
-0.718100	-0.006739	 1.269699	-176.005900	-7.056068	-0.138756	 19.057840	 2.082372	 172.902000	-6.512579	-17.306390	-2.386846	-16.454590	 72.072360	 10.846020	-2.385833	 28.452760	 0.000004	-16.613520	 4.538095	-174.512100	 3.631903	-16.843950	 1.117822	 15.959110	 72.791020	-12.258910	 2.384659	 28.388700	-0.000001	 0.172559	 7.368480	-2.784035	 0.677770	 10.701210	 8.878592	-11.169950	-8.702317	-11.138250	-91.776250	 78.527420	-179.999900	-3.665853	 24.350120	 21.874300	-16.591580	-5.079438	-70.462700	-1.979871	-11.067750	-2.413792	-4.130354	 21.526190	 0.991307	-5.167926	 0.731697	 3.519349	-1.378229	 35.397820	-2.634230	-9.213446	 1.305627	 4.855847	-7.470660	-17.085710	-7.223102	 89.782160	 78.203900	 179.999900	 21.798520	 15.346980	-14.062960	 10.650130	-3.252755	 69.012920	 44.820440	 31.689240	-3.253124	 5.716295	 19.173350	-3.684826	 5.027458	 0.246833	-9.377971	-2.350882	 35.473990	 5.254307
-0.718298	-0.006952	 1.268749	-175.998100	-7.127020	-0.323127	 19.130190	 1.579540	 172.663900	-6.670827	-19.161760	-2.686138	-19.711680	 72.978910	 14.368330	-2.385833	 28.452760	 0.000004	-16.303040	 4.605403	-174.157300	 3.593643	-17.993720	 1.179793	 17.298140	 73.892460	-13.579920	 2.384659	 28.388700	-0.000001	-0.560485	 7.507833	-2.499349	-0.009077	 9.557708	 8.583393	-10.887970	-7.972939	-10.775650	-91.776170	 78.527420	 180.000000	-4.765181	 33.447480	 24.520500	-17.209010	-5.413886	-77.663590	-2.131952	-11.091630	-2.426288	-4.130354	 21.526190	 0.991307	-5.167926	 0.731697	 3.519349	-1.378229	 35.397820	-2.634230	-9.040062	 1.051873	 4.702593	-7.341372	-16.714050	-6.821726	 89.782100	 78.203890	-180.000000	 16.628500	 22.045180	-16.516790	 11.171260	-3.600958	 78.596490	 41.211870	 25.997550	 1.092157	 5.716295	 19.173350	-3.684826	 5.027458	 0.246833	-9.377971	-2.350882	 35.473990	 5.254307
-0.718543	-0.007268	 1.267369	-175.997400	-7.209120	-0.564457	 19.216340	 0.969230	 172.263300	-6.900570	-21.598570	-3.097916	-24.889100	 74.052130	 19.937750	-2.385833	 28.452760	 0.000004	-15.875470	 4.851593	-173.668200	 3.528109	-19.426360	 1.248331	 19.571170	 75.393710	-15.814700	 2.384659	 28.388700	-0.000001	-1.658136	 7.697311	-2.081561	-1.046914	 7.825050	 8.015572	-10.482400	-6.879096	-10.180050	-91.776210	 78.527420	-180.000000	-5.080698	 47.292450	 25.064380	-17.591920	-5.666069	-81.958570	-2.346677	-11.117350	-2.442287	-4.130354	 21.526190	 0.991307	-5.167926	 0.731697	 3.519349	-1.378229	 35.397820	-2.634230	-8.795567	 0.695729	 4.489892	-7.162454	-16.190320	-6.258041	 89.782150	 78.203890	 180.000000	 6.898715	 32.431230	-15.497130	 11.742990	-3.963579	 87.772480	 33.436650	 17.837880	 8.226752	 5.716295	 19.173350	-3.684826	 5.027458	 0.246833	-9.377971	-2.350882	 35.473990	 5.254307
-0.718634	-0.007524	 1.266383	-176.014700	-7.271651	-0.370322	 19.082960	 0.405546	 171.595800	-7.003096	-23.480350	-3.394226	-29.381670	 75.117050	 24.576580	-2.385833	 28.452760	 0.000004	-15.685160	 5.370987	-173.649600	 3.447053	-20.056320	 1.259256	 22.159950	 76.140830	-18.415130	 2.384659	 28.388700	-0.000001	-2.443216	 7.952483	-2.406032	-1.883596	 6.182578	 7.813307	-10.130330	-5.637387	-9.712358	-91.776170	 78.527430	 180.000000	-3.111876	 57.279760	 21.333110	-17.360200	-5.805511	-79.913040	-2.276476	-10.989100	-2.465885	-4.130354	 21.526190	 0.991307	-5.167926	 0.731697	 3.519349	-1.378229	 35.397820	-2.634230	-8.680408	 0.658933	 4.579575	-7.046678	-15.757140	-6.557834	 89.782120	 78.203890	 180.000000	-2.421157	 40.239330	-10.361040	 11.970900	-4.621625	 90.916040	 25.810070	 11.984130	 13.147280	 5.716295	 19.173350	-3.684826	 5.027458	 0.246833	-9.377971	-2.350882	 35.473990	 5.254307
